<?xml version="1.0" encoding="UTF-8" standalone="no"?>
<svg width="201px" height="326px" viewBox="0 0 201 326" version="1.1" xmlns="http://www.w3.org/2000/svg" xmlns:xlink="http://www.w3.org/1999/xlink" xmlns:sketch="http://www.bohemiancoding.com/sketch/ns">
    <!-- Generator: Sketch Beta 3.2 (9961) - http://www.bohemiancoding.com/sketch -->
    <title>corkdevio-logo</title>
    <desc>Created with Sketch Beta.</desc>
    <defs></defs>
    <g id="Page-1" stroke="none" stroke-width="1" fill="none" fill-rule="evenodd" sketch:type="MSPage">
        <g id="Slices" sketch:type="MSLayerGroup"></g>
        <g id="Group" sketch:type="MSLayerGroup" transform="translate(3.000000, 0.000000)">
            <polygon id="Polygon-1" fill="#330306" sketch:type="MSShapeGroup" points="97.5 0 195 37.2966102 195 288.70339 97.5 326 6.86233743e-14 288.70339 5.88200351e-15 37.2966102 "></polygon>
            <polygon id="Path" fill="#FFFFFF" sketch:type="MSShapeGroup" points="97.5 11 185 46.0084746 185 281.991525 97.5 317 10 281.991525 10 46.0084746 "></polygon>
            <polygon id="Path" fill="#CF0D19" sketch:type="MSShapeGroup" points="97.5 18 178 51.4067797 178 276.59322 97.5 310 17 276.59322 17 51.4067797 "></polygon>
            <text id="CORK" fill="#FFFFFF" sketch:type="MSTextLayer" font-family="Signika" font-size="56.400002" font-weight="526" sketch:alignment="middle" letter-spacing="0.5">
                <tspan x="26.5921975" y="128">CORK</tspan>
            </text>
            <text id="DEV" fill="#330306" sketch:type="MSTextLayer" font-family="Signika" font-size="76.400002" font-weight="526" sketch:alignment="middle" letter-spacing="0.5">
                <tspan x="27.2641982" y="196">DEV</tspan>
            </text>
            <text id=".io" fill="#330306" sketch:type="MSTextLayer" font-family="Signika" font-size="47.400002" font-weight="526" sketch:alignment="middle" letter-spacing="0.5">
                <tspan x="71.1302989" y="241">.io</tspan>
            </text>
            <polygon id="Star-1" fill="#FFFFFF" sketch:type="MSShapeGroup" points="97.4999997 50.5078125 89.7073931 54.7326547 91.1956482 45.7842961 84.8912961 39.4470336 93.6036975 38.1414845 97.5000002 30 101.396305 38.1414865 110.108706 39.4470401 103.804351 45.7842978 105.292607 54.7326549 "></polygon>
            <polygon id="Star-1" fill="#FFFFFF" sketch:type="MSShapeGroup" points="97.4999997 289.507812 89.7073931 293.732655 91.1956482 284.784296 84.8912961 278.447034 93.6036975 277.141484 97.5000002 269 101.396305 277.141486 110.108706 278.44704 103.804351 284.784298 105.292607 293.732655 "></polygon>
        </g>
    </g>
</svg>